<svg width="512" height="512" viewBox="0 0 512 512" xmlns="http://www.w3.org/2000/svg">
  <defs>
    <!-- Background gradient - deep purple diagonal gradient -->
    <linearGradient id="bgGradient" x1="0%" y1="0%" x2="100%" y2="100%">
      <stop offset="0%" style="stop-color:#2d1b69;stop-opacity:1" />
      <stop offset="35%" style="stop-color:#4a2c8e;stop-opacity:1" />
      <stop offset="70%" style="stop-color:#6b46c1;stop-opacity:1" />
      <stop offset="100%" style="stop-color:#9061d8;stop-opacity:1" />
    </linearGradient>

    <!-- Outer gray border gradient -->
    <linearGradient id="outerBorderGradient" x1="0%" y1="0%" x2="0%" y2="100%">
      <stop offset="0%" style="stop-color:#9a9a9a;stop-opacity:1" />
      <stop offset="50%" style="stop-color:#5a5a5a;stop-opacity:1" />
      <stop offset="100%" style="stop-color:#3a3a3a;stop-opacity:1" />
    </linearGradient>

    <!-- Highlight gradient for overlay -->
    <linearGradient id="highlight" x1="0%" y1="0%" x2="0%" y2="100%">
      <stop offset="0%" style="stop-color:#ffffff;stop-opacity:0.4" />
      <stop offset="100%" style="stop-color:#ffffff;stop-opacity:0" />
    </linearGradient>

    <!-- Clip path to ensure highlight doesn't overlap borders -->
    <clipPath id="clipInner">
      <rect x="69" y="69" width="374" height="374" rx="49" ry="49"/>
    </clipPath>
  </defs>

  <!-- Outer gray border - increased by 50% (was 18px thick, now 27px) -->
  <rect x="6" y="6" width="500" height="500" rx="112" ry="112" fill="url(#outerBorderGradient)"/>

  <!-- Inner black border - increased by 50% (was 18px thick, now 27px) -->
  <rect x="33" y="33" width="446" height="446" rx="85" ry="85" fill="#1a1a1a"/>

  <!-- Main blue gradient background -->
  <rect x="69" y="69" width="374" height="374" rx="49" ry="49" fill="url(#bgGradient)"/>

  <!-- Git branching icon styled as 'r' -->
  <g transform="translate(256, 256)">
    <!-- Shadow effect for lines -->
    <g opacity="0.3" transform="translate(4, 4)" filter="blur(2px)">
      <line x1="-50" y1="-90" x2="-50" y2="110" stroke="#000000" stroke-width="18" stroke-linecap="round"/>
      <path d="M -50,-15 L -15,-50 C 35,-100 90,-100 90,-50 C 90,-25 90,-15 75,-15"
            fill="none"
            stroke="#000000"
            stroke-width="18"
            stroke-linecap="round"/>
    </g>

    <!-- Shadow effect for nodes -->
    <g opacity="0.3" transform="translate(4, 4)" filter="blur(2px)">
      <circle cx="-50" cy="-90" r="28" fill="#000000"/>
      <circle cx="-50" cy="-15" r="28" fill="#000000"/>
      <circle cx="-50" cy="110" r="28" fill="#000000"/>
      <circle cx="75" cy="-15" r="28" fill="#000000"/>
    </g>

    <!-- Main vertical stem of 'r' -->
    <line x1="-50" y1="-90" x2="-50" y2="110" stroke="#f3edff" stroke-width="18" stroke-linecap="round" opacity="1"/>

    <!-- Curved branch that creates the 'r' shape - refined curve -->
    <path d="M -50,-15 L -15,-50 C 35,-100 90,-100 90,-50 C 90,-25 90,-15 75,-15"
          fill="none"
          stroke="#f3edff"
          stroke-width="18"
          stroke-linecap="round"
          opacity="1"/>

    <!-- Top node (commit) -->
    <circle cx="-50" cy="-90" r="28" fill="#f3edff" opacity="1"/>

    <!-- Branch point node -->
    <circle cx="-50" cy="-15" r="28" fill="#f3edff" opacity="1"/>

    <!-- Bottom node -->
    <circle cx="-50" cy="110" r="28" fill="#f3edff" opacity="1"/>

    <!-- Branch end node - exactly inline with branch point -->
    <circle cx="75" cy="-15" r="28" fill="#f3edff" opacity="1"/>

    <!-- Inner dots for git commit detail - all same size -->
    <circle cx="-50" cy="-90" r="9" fill="url(#bgGradient)"/>
    <circle cx="-50" cy="-15" r="9" fill="url(#bgGradient)"/>
    <circle cx="-50" cy="110" r="9" fill="url(#bgGradient)"/>
    <circle cx="75" cy="-15" r="9" fill="url(#bgGradient)"/>
  </g>

  <!-- Top glossy highlight overlay - adjusted to not overlap borders -->
  <path d="M 118 69 L 394 69 Q 443 69 443 118 L 443 150 L 69 150 L 69 118 Q 69 69 118 69 Z"
        fill="url(#highlight)"
        opacity="0.6"
        clip-path="url(#clipInner)"/>
</svg>
